<svg width="293" height="173" viewBox="0 0 293 173" fill="none" xmlns="http://www.w3.org/2000/svg">
<path d="M66.4758 171.606C66.4758 171.606 67.5826 166.88 66.8908 161.224C66.1991 155.491 61.7028 146.736 57.3449 146.969C53.0561 147.279 52.7794 152.857 55.408 155.569C58.0366 158.28 64.3314 164.556 64.1931 171.373L66.4758 171.606Z" fill="#40C7A7"/>
<path d="M57.2064 150.145C59.6966 151.927 66.5448 158.9 65.5072 171.451" stroke="#3B55CE" stroke-width="0.620369" stroke-miterlimit="10" stroke-linecap="round"/>
<path d="M65.5075 171.451C65.5075 171.141 65.5767 166.027 61.9797 161.844C58.3134 157.583 52.3645 156.73 49.5284 158.822C46.8998 160.759 47.3148 165.098 52.157 165.253C59.5586 165.485 62.8789 166.725 64.2624 171.373L65.5075 171.451Z" fill="#22A482"/>
<path d="M50.912 160.837C54.3707 160.062 63.3633 161.225 64.9543 171.451" stroke="#3B55CE" stroke-width="0.620369" stroke-miterlimit="10" stroke-linecap="round"/>
<path d="M262.791 69.8042C260.785 70.3465 260.024 71.2762 258.64 75.5373C257.257 79.7984 254.282 89.4053 253.937 89.9476C253.937 89.9476 243.284 88.7854 240.586 88.3206C239.203 88.0882 237.335 88.0107 235.675 88.0882C234.568 88.1657 232.7 88.3206 231.87 88.4755C229.795 88.8629 231.248 90.7223 232.908 91.8844C235.121 93.4339 238.857 91.9619 241.554 92.1943C244.321 92.4268 254.213 95.7582 255.527 95.2158C256.911 94.596 262.583 81.5028 262.583 81.5028L262.791 69.8042Z" fill="#DD7A79"/>
<path d="M240.586 88.3209C239.203 88.0885 239.618 87.6236 238.58 87.0813C237.543 86.539 236.782 86.6164 236.021 86.2291C235.191 85.8417 235.26 86.6939 235.813 87.1588C236.021 87.3912 236.574 87.5461 236.782 87.7011C237.335 88.011 235.744 88.0885 235.744 88.0885L240.586 88.3209Z" fill="#DD7A79"/>
<path d="M156.263 171.063C156.263 171.063 159.999 162.076 155.572 155.878C151.145 149.758 146.302 152.159 146.302 152.159C146.302 152.159 142.221 137.904 131.984 142.165C121.746 146.426 125.412 156.963 125.412 156.963C125.412 156.963 122.714 155.878 121.192 158.202C119.601 160.527 121.192 162.928 121.192 162.928C121.192 162.928 110.332 163.858 110.332 171.063H156.263Z" fill="#40C7A7"/>
<path opacity="0.55" d="M206.276 12.3955H142.221C140.491 12.3955 139.039 13.945 139.039 15.9593V155.104C139.039 157.04 140.422 158.667 142.221 158.667H206.276C208.005 158.667 209.457 157.118 209.457 155.104V15.9593C209.457 14.0225 208.005 12.3955 206.276 12.3955Z" fill="#D9E8FF"/>
<path d="M207.728 0H140.837C137.448 0 134.75 3.02151 134.75 6.81776V164.246C134.75 168.042 137.448 171.064 140.837 171.064H207.728C211.118 171.064 213.816 168.042 213.816 164.246V6.81776C213.816 3.02151 211.118 0 207.728 0ZM209.458 155.104C209.458 157.041 208.074 158.668 206.276 158.668H142.221C140.491 158.668 139.039 157.118 139.039 155.104V15.9598C139.039 14.0229 140.422 12.3959 142.221 12.3959H206.276C208.005 12.3959 209.458 13.9454 209.458 15.9598V155.104Z" fill="#3B55CE"/>
<path d="M140.837 171.063H207.728C211.118 171.063 213.815 168.042 213.815 164.246V6.81733C213.815 5.19037 213.262 3.64088 212.432 2.47876L207.728 12.7829C208.766 13.3252 209.457 14.5648 209.457 15.9593V155.104C209.457 157.04 208.074 158.667 206.275 158.667H142.221C141.736 158.667 141.321 158.512 140.906 158.358L136.133 168.739C137.309 170.134 138.969 171.063 140.837 171.063Z" fill="#032575"/>
<path d="M170.72 8.44469C169.614 8.44469 168.714 7.43752 168.714 6.19793C168.714 4.95834 169.614 3.95117 170.72 3.95117C171.827 3.95117 172.726 4.95834 172.726 6.19793C172.796 7.43752 171.896 8.44469 170.72 8.44469Z" fill="#000E5B"/>
<path d="M186.699 6.198C186.699 5.42326 186.146 4.80347 185.454 4.80347H177.361C176.669 4.80347 176.116 5.42326 176.116 6.198C176.116 6.97275 176.669 7.59255 177.361 7.59255H185.454C186.146 7.59255 186.699 6.97275 186.699 6.198Z" fill="#000E5B"/>
<path d="M183.932 70.6565H148.308C147.616 70.6565 147.063 70.0367 147.063 69.2619V29.3626C147.063 28.5878 147.616 27.968 148.308 27.968H183.932C184.624 27.968 185.177 28.5878 185.177 29.3626V69.2619C185.177 70.0367 184.624 70.6565 183.932 70.6565Z" fill="#85B8ED"/>
<path d="M182.551 69.1067H146.927C146.235 69.1067 145.681 68.4869 145.681 67.7121V27.8128C145.681 27.038 146.235 26.4182 146.927 26.4182H182.551C183.243 26.4182 183.796 27.038 183.796 27.8128V67.7121C183.796 68.4869 183.243 69.1067 182.551 69.1067Z" fill="#FFFFF8"/>
<path d="M147.96 82.5677C147.742 82.5473 147.538 82.5133 147.348 82.4656C147.164 82.4112 146.994 82.3534 146.837 82.2922C146.688 82.2309 146.555 82.1731 146.439 82.1187C146.33 82.0575 146.249 82.0098 146.194 81.9758L146.633 81.0778C146.681 81.1119 146.762 81.1595 146.878 81.2207C146.994 81.2819 147.123 81.3466 147.266 81.4146C147.416 81.4758 147.569 81.5302 147.725 81.5779C147.882 81.6255 148.028 81.6493 148.164 81.6493C148.844 81.6493 149.184 81.367 149.184 80.8023C149.184 80.6663 149.16 80.554 149.113 80.4656C149.072 80.3771 149.007 80.3023 148.919 80.2411C148.837 80.1731 148.735 80.1152 148.613 80.0676C148.497 80.0132 148.365 79.9588 148.215 79.9043C147.929 79.7955 147.674 79.6832 147.45 79.5676C147.232 79.4451 147.045 79.3091 146.888 79.1594C146.732 79.0098 146.613 78.8397 146.531 78.6492C146.45 78.4587 146.409 78.241 146.409 77.9961C146.409 77.8056 146.446 77.622 146.521 77.4451C146.596 77.2682 146.701 77.1117 146.837 76.9757C146.973 76.8328 147.137 76.7138 147.327 76.6185C147.518 76.5165 147.728 76.445 147.96 76.4042V75.5981H148.797V76.3838C148.973 76.4042 149.143 76.4348 149.307 76.4757C149.47 76.5165 149.616 76.5607 149.746 76.6083C149.875 76.6559 149.984 76.7036 150.072 76.7512C150.167 76.792 150.235 76.8226 150.276 76.843L149.868 77.6798C149.814 77.6526 149.735 77.6186 149.633 77.5777C149.538 77.5301 149.429 77.4825 149.307 77.4349C149.184 77.3873 149.052 77.3464 148.909 77.3124C148.766 77.2784 148.623 77.2614 148.48 77.2614C148.249 77.2614 148.041 77.309 147.858 77.4043C147.681 77.4927 147.592 77.6458 147.592 77.8635C147.592 77.9995 147.616 78.122 147.664 78.2308C147.718 78.3329 147.793 78.4247 147.888 78.5063C147.99 78.588 148.113 78.6662 148.256 78.741C148.405 78.8091 148.575 78.8771 148.766 78.9451C149.018 79.0472 149.242 79.1526 149.439 79.2615C149.637 79.3703 149.803 79.4928 149.939 79.6288C150.075 79.7649 150.178 79.9213 150.246 80.0982C150.32 80.2751 150.358 80.4826 150.358 80.7207C150.358 80.9248 150.324 81.1221 150.256 81.3125C150.195 81.503 150.096 81.6799 149.96 81.8432C149.831 82.0064 149.667 82.1493 149.47 82.2718C149.28 82.3874 149.055 82.4724 148.797 82.5269V83.5269H147.96V82.5677ZM151.639 79.3941L151.986 76.1797H155.333L155.17 77.1083H153.006L152.792 78.7512C152.847 78.7172 152.952 78.6764 153.108 78.6288C153.265 78.5812 153.503 78.5574 153.823 78.5574C154.108 78.5574 154.364 78.6118 154.588 78.7206C154.819 78.8227 155.013 78.9655 155.17 79.1492C155.333 79.3329 155.455 79.5472 155.537 79.7921C155.626 80.037 155.67 80.2989 155.67 80.5778C155.67 80.8431 155.632 81.1085 155.558 81.3738C155.483 81.6323 155.36 81.8636 155.19 82.0677C155.02 82.2718 154.799 82.4384 154.527 82.5677C154.262 82.6901 153.935 82.7514 153.547 82.7514C153.187 82.7514 152.83 82.7003 152.476 82.5983C152.129 82.4963 151.782 82.367 151.435 82.2105L151.782 81.3636C152.095 81.4996 152.367 81.6153 152.598 81.7105C152.836 81.8058 153.078 81.8534 153.323 81.8534C153.717 81.8534 153.996 81.7479 154.16 81.537C154.33 81.3193 154.415 80.9962 154.415 80.5676C154.415 80.2071 154.319 79.935 154.129 79.7513C153.945 79.5608 153.7 79.4655 153.394 79.4655C153.19 79.4655 153.013 79.4792 152.864 79.5064C152.714 79.5336 152.585 79.5642 152.476 79.5982C152.374 79.6322 152.292 79.6662 152.231 79.7002C152.176 79.7275 152.139 79.7445 152.119 79.7513L151.639 79.3941ZM157.555 81.2513C157.794 81.2513 157.974 81.3227 158.096 81.4656C158.226 81.6085 158.29 81.7921 158.29 82.0166C158.29 82.2343 158.226 82.418 158.096 82.5677C157.967 82.7173 157.777 82.7922 157.525 82.7922C157.287 82.7922 157.103 82.7173 156.974 82.5677C156.845 82.418 156.78 82.2411 156.78 82.0371C156.78 81.8194 156.845 81.6357 156.974 81.486C157.103 81.3296 157.297 81.2513 157.555 81.2513ZM146.827 93.6595C146.984 93.7139 147.15 93.7581 147.327 93.7921C147.504 93.8262 147.681 93.8432 147.858 93.8432C148.15 93.8432 148.388 93.7887 148.572 93.6799C148.763 93.5711 148.912 93.4248 149.021 93.2411C149.13 93.0506 149.205 92.8329 149.246 92.588C149.293 92.3363 149.32 92.071 149.327 91.7921C149.273 91.8601 149.201 91.9315 149.113 92.0064C149.031 92.0812 148.933 92.1492 148.817 92.2105C148.708 92.2717 148.582 92.3227 148.439 92.3635C148.297 92.4044 148.137 92.4248 147.96 92.4248C147.361 92.4248 146.892 92.2411 146.552 91.8737C146.211 91.4996 146.041 90.9757 146.041 90.3022C146.041 89.9961 146.089 89.7138 146.184 89.4553C146.286 89.19 146.433 88.9621 146.623 88.7716C146.813 88.5743 147.048 88.4212 147.327 88.3124C147.613 88.2035 147.939 88.1491 148.307 88.1491C148.735 88.1491 149.092 88.2308 149.378 88.394C149.671 88.5573 149.905 88.7852 150.082 89.0777C150.259 89.3702 150.385 89.7206 150.46 90.1288C150.535 90.5301 150.572 90.9723 150.572 91.4553C150.572 91.8907 150.521 92.3091 150.419 92.7105C150.317 93.1051 150.154 93.452 149.929 93.7513C149.712 94.0507 149.429 94.2922 149.082 94.4758C148.735 94.6527 148.314 94.7412 147.817 94.7412C147.565 94.7412 147.327 94.7139 147.103 94.6595C146.885 94.6051 146.688 94.5405 146.511 94.4656L146.827 93.6595ZM148.184 91.5472C148.32 91.5472 148.453 91.5268 148.582 91.486C148.712 91.4451 148.827 91.3975 148.929 91.3431C149.031 91.2887 149.116 91.2377 149.184 91.19C149.259 91.1356 149.307 91.1016 149.327 91.088C149.307 90.3805 149.212 89.8601 149.041 89.5267C148.871 89.1866 148.596 89.0165 148.215 89.0165C147.868 89.0165 147.616 89.1355 147.46 89.3736C147.303 89.6118 147.225 89.9179 147.225 90.292C147.225 90.4689 147.242 90.6356 147.276 90.7921C147.31 90.9417 147.365 91.0744 147.439 91.19C147.514 91.2989 147.613 91.3873 147.735 91.4553C147.858 91.5166 148.007 91.5472 148.184 91.5472ZM152.168 93.6595C152.325 93.7139 152.492 93.7581 152.668 93.7921C152.845 93.8262 153.022 93.8432 153.199 93.8432C153.492 93.8432 153.73 93.7887 153.913 93.6799C154.104 93.5711 154.254 93.4248 154.362 93.2411C154.471 93.0506 154.546 92.8329 154.587 92.588C154.635 92.3363 154.662 92.071 154.669 91.7921C154.614 91.8601 154.543 91.9315 154.454 92.0064C154.373 92.0812 154.274 92.1492 154.158 92.2105C154.049 92.2717 153.924 92.3227 153.781 92.3635C153.638 92.4044 153.478 92.4248 153.301 92.4248C152.702 92.4248 152.233 92.2411 151.893 91.8737C151.553 91.4996 151.383 90.9757 151.383 90.3022C151.383 89.9961 151.43 89.7138 151.526 89.4553C151.628 89.19 151.774 88.9621 151.964 88.7716C152.155 88.5743 152.39 88.4212 152.668 88.3124C152.954 88.2035 153.281 88.1491 153.648 88.1491C154.077 88.1491 154.434 88.2308 154.72 88.394C155.012 88.5573 155.247 88.7852 155.424 89.0777C155.601 89.3702 155.726 89.7206 155.801 90.1288C155.876 90.5301 155.913 90.9723 155.913 91.4553C155.913 91.8907 155.862 92.3091 155.76 92.7105C155.658 93.1051 155.495 93.452 155.271 93.7513C155.053 94.0507 154.771 94.2922 154.424 94.4758C154.077 94.6527 153.655 94.7412 153.158 94.7412C152.907 94.7412 152.668 94.7139 152.444 94.6595C152.226 94.6051 152.029 94.5405 151.852 94.4656L152.168 93.6595ZM153.526 91.5472C153.662 91.5472 153.794 91.5268 153.924 91.486C154.053 91.4451 154.169 91.3975 154.271 91.3431C154.373 91.2887 154.458 91.2377 154.526 91.19C154.601 91.1356 154.648 91.1016 154.669 91.088C154.648 90.3805 154.553 89.8601 154.383 89.5267C154.213 89.1866 153.937 89.0165 153.556 89.0165C153.209 89.0165 152.958 89.1355 152.801 89.3736C152.645 89.6118 152.566 89.9179 152.566 90.292C152.566 90.4689 152.583 90.6356 152.617 90.7921C152.651 90.9417 152.706 91.0744 152.781 91.19C152.856 91.2989 152.954 91.3873 153.077 91.4553C153.199 91.5166 153.349 91.5472 153.526 91.5472Z" fill="#042776"/>
<path d="M177.569 82.7423H183.863C184.278 82.7423 184.624 82.3549 184.624 81.89V74.5299C184.624 74.0651 184.278 73.6777 183.863 73.6777H177.569C177.153 73.6777 176.808 74.0651 176.808 74.5299V81.89C176.808 82.3549 177.153 82.7423 177.569 82.7423Z" fill="#85B8ED"/>
<path d="M176.808 81.89H183.103C183.518 81.89 183.864 81.5026 183.864 81.0377V73.6777C183.864 73.2128 183.518 72.8254 183.103 72.8254H176.808C176.393 72.8254 176.047 73.2128 176.047 73.6777V81.0377C176.047 81.5026 176.393 81.89 176.808 81.89Z" fill="#EA5E5D"/>
<path d="M180.543 80.1079H178.122V75.4595H181.789V78.7909" stroke="white" stroke-width="0.54666" stroke-miterlimit="10"/>
<path d="M179.021 76.5441C179.174 76.5441 179.298 76.4054 179.298 76.2342C179.298 76.0631 179.174 75.9243 179.021 75.9243C178.868 75.9243 178.745 76.0631 178.745 76.2342C178.745 76.4054 178.868 76.5441 179.021 76.5441Z" fill="white"/>
<path d="M180.544 76.2342C180.544 76.0793 180.682 75.9243 180.82 75.9243C180.959 75.9243 181.097 76.0793 181.097 76.2342C181.097 76.3892 180.959 76.5441 180.82 76.5441C180.682 76.5441 180.544 76.3892 180.544 76.2342Z" fill="white"/>
<path d="M179.022 76.0794V74.9947C179.022 74.4524 179.437 73.9875 179.921 73.9875C180.405 73.9875 180.82 74.4524 180.82 74.9947V76.0794" stroke="white" stroke-width="0.364406" stroke-miterlimit="10"/>
<path d="M181.789 80.1078V79.1006" stroke="white" stroke-width="0.54666" stroke-miterlimit="10"/>
<path d="M181.789 81.1148V80.1077" stroke="white" stroke-width="0.54666" stroke-miterlimit="10"/>
<path d="M181.789 80.1077H180.89" stroke="white" stroke-width="0.54666" stroke-miterlimit="10"/>
<path d="M182.688 80.1077H181.789" stroke="white" stroke-width="0.54666" stroke-miterlimit="10"/>
<path d="M164.771 59.9646H174.317L173.557 42.4554L176.808 46.8714L181.166 41.6806C181.166 41.6806 175.493 33.9332 174.525 33.2359C173.487 32.6161 168.922 32.2288 168.922 32.2288C168.853 33.8557 167.677 36.5673 164.771 36.5673C161.866 36.5673 160.759 33.8557 160.621 32.2288C160.621 32.2288 155.986 32.6161 155.018 33.2359C153.98 33.8557 148.377 41.6806 148.377 41.6806L152.735 46.8714L155.986 42.4554L155.226 59.9646H164.771Z" fill="#85B8ED"/>
<path d="M227.927 133.721H192.303C191.611 133.721 191.058 133.101 191.058 132.326V92.4268C191.058 91.652 191.611 91.0322 192.303 91.0322H227.927C228.619 91.0322 229.172 91.652 229.172 92.4268V132.326C229.242 133.023 228.619 133.721 227.927 133.721Z" fill="#85B8ED"/>
<path d="M226.543 132.093H190.919C190.227 132.093 189.674 131.473 189.674 130.699V90.7993C189.674 90.0246 190.227 89.4048 190.919 89.4048H226.543C227.235 89.4048 227.789 90.0246 227.789 90.7993V130.699C227.789 131.473 227.235 132.093 226.543 132.093Z" fill="#FFFFF8"/>
<path d="M191.965 145.558C191.747 145.538 191.543 145.503 191.352 145.456C191.169 145.401 190.999 145.344 190.842 145.282C190.692 145.221 190.56 145.163 190.444 145.109C190.335 145.048 190.254 145 190.199 144.966L190.638 144.068C190.686 144.102 190.767 144.15 190.883 144.211C190.999 144.272 191.128 144.337 191.271 144.405C191.42 144.466 191.573 144.52 191.73 144.568C191.886 144.616 192.033 144.64 192.169 144.64C192.849 144.64 193.189 144.357 193.189 143.793C193.189 143.656 193.165 143.544 193.118 143.456C193.077 143.367 193.012 143.293 192.924 143.231C192.842 143.163 192.74 143.105 192.618 143.058C192.502 143.003 192.369 142.949 192.22 142.895C191.934 142.786 191.679 142.673 191.454 142.558C191.237 142.435 191.05 142.299 190.893 142.15C190.737 142 190.618 141.83 190.536 141.639C190.454 141.449 190.413 141.231 190.413 140.986C190.413 140.796 190.451 140.612 190.526 140.435C190.601 140.258 190.706 140.102 190.842 139.966C190.978 139.823 191.141 139.704 191.332 139.609C191.522 139.507 191.733 139.435 191.965 139.394V138.588H192.801V139.374C192.978 139.394 193.148 139.425 193.312 139.466C193.475 139.507 193.621 139.551 193.75 139.599C193.88 139.646 193.988 139.694 194.077 139.741C194.172 139.782 194.24 139.813 194.281 139.833L193.873 140.67C193.818 140.643 193.74 140.609 193.638 140.568C193.543 140.52 193.434 140.473 193.312 140.425C193.189 140.377 193.056 140.337 192.914 140.303C192.771 140.269 192.628 140.252 192.485 140.252C192.254 140.252 192.046 140.299 191.862 140.394C191.686 140.483 191.597 140.636 191.597 140.854C191.597 140.99 191.621 141.112 191.669 141.221C191.723 141.323 191.798 141.415 191.893 141.497C191.995 141.578 192.118 141.656 192.26 141.731C192.41 141.799 192.58 141.867 192.771 141.935C193.022 142.037 193.247 142.143 193.444 142.252C193.641 142.361 193.808 142.483 193.944 142.619C194.08 142.755 194.182 142.912 194.25 143.088C194.325 143.265 194.363 143.473 194.363 143.711C194.363 143.915 194.329 144.112 194.261 144.303C194.199 144.493 194.101 144.67 193.965 144.833C193.835 144.997 193.672 145.14 193.475 145.262C193.284 145.378 193.06 145.463 192.801 145.517V146.517H191.965V145.558ZM198.042 143.874H195.185V143.221L197.042 139.17H198.236L196.45 142.997H198.042V140.915L199.195 140.711V142.997H200.185L200.021 143.874H199.195V145.67H198.042V143.874ZM201.73 144.242C201.968 144.242 202.148 144.313 202.27 144.456C202.4 144.599 202.464 144.782 202.464 145.007C202.464 145.225 202.4 145.408 202.27 145.558C202.141 145.708 201.951 145.782 201.699 145.782C201.461 145.782 201.277 145.708 201.148 145.558C201.019 145.408 200.954 145.231 200.954 145.027C200.954 144.81 201.019 144.626 201.148 144.476C201.277 144.32 201.471 144.242 201.73 144.242ZM190.832 156.65C190.988 156.704 191.155 156.748 191.332 156.782C191.509 156.816 191.686 156.833 191.862 156.833C192.155 156.833 192.393 156.779 192.577 156.67C192.767 156.561 192.917 156.415 193.026 156.231C193.135 156.041 193.209 155.823 193.25 155.578C193.298 155.327 193.325 155.061 193.332 154.782C193.278 154.85 193.206 154.922 193.118 154.997C193.036 155.071 192.937 155.139 192.822 155.201C192.713 155.262 192.587 155.313 192.444 155.354C192.301 155.395 192.141 155.415 191.965 155.415C191.366 155.415 190.896 155.231 190.556 154.864C190.216 154.49 190.046 153.966 190.046 153.292C190.046 152.986 190.094 152.704 190.189 152.446C190.291 152.18 190.437 151.952 190.628 151.762C190.818 151.565 191.053 151.411 191.332 151.303C191.618 151.194 191.944 151.139 192.311 151.139C192.74 151.139 193.097 151.221 193.383 151.384C193.675 151.548 193.91 151.775 194.087 152.068C194.264 152.36 194.39 152.711 194.465 153.119C194.539 153.52 194.577 153.963 194.577 154.446C194.577 154.881 194.526 155.299 194.424 155.701C194.322 156.095 194.158 156.442 193.934 156.742C193.716 157.041 193.434 157.282 193.087 157.466C192.74 157.643 192.318 157.731 191.822 157.731C191.57 157.731 191.332 157.704 191.107 157.65C190.89 157.595 190.692 157.531 190.516 157.456L190.832 156.65ZM192.189 154.537C192.325 154.537 192.458 154.517 192.587 154.476C192.716 154.435 192.832 154.388 192.934 154.333C193.036 154.279 193.121 154.228 193.189 154.18C193.264 154.126 193.312 154.092 193.332 154.078C193.312 153.371 193.216 152.85 193.046 152.517C192.876 152.177 192.601 152.007 192.22 152.007C191.873 152.007 191.621 152.126 191.465 152.364C191.308 152.602 191.23 152.908 191.23 153.282C191.23 153.459 191.247 153.626 191.281 153.782C191.315 153.932 191.369 154.065 191.444 154.18C191.519 154.289 191.618 154.378 191.74 154.446C191.862 154.507 192.012 154.537 192.189 154.537ZM196.173 156.65C196.33 156.704 196.496 156.748 196.673 156.782C196.85 156.816 197.027 156.833 197.204 156.833C197.496 156.833 197.734 156.779 197.918 156.67C198.109 156.561 198.258 156.415 198.367 156.231C198.476 156.041 198.551 155.823 198.592 155.578C198.639 155.327 198.666 155.061 198.673 154.782C198.619 154.85 198.547 154.922 198.459 154.997C198.377 155.071 198.279 155.139 198.163 155.201C198.054 155.262 197.928 155.313 197.786 155.354C197.643 155.395 197.483 155.415 197.306 155.415C196.707 155.415 196.238 155.231 195.898 154.864C195.558 154.49 195.387 153.966 195.387 153.292C195.387 152.986 195.435 152.704 195.53 152.446C195.632 152.18 195.779 151.952 195.969 151.762C196.16 151.565 196.394 151.411 196.673 151.303C196.959 151.194 197.285 151.139 197.653 151.139C198.081 151.139 198.439 151.221 198.724 151.384C199.017 151.548 199.252 151.775 199.428 152.068C199.605 152.36 199.731 152.711 199.806 153.119C199.881 153.52 199.918 153.963 199.918 154.446C199.918 154.881 199.867 155.299 199.765 155.701C199.663 156.095 199.5 156.442 199.275 156.742C199.058 157.041 198.775 157.282 198.428 157.466C198.081 157.643 197.66 157.731 197.163 157.731C196.911 157.731 196.673 157.704 196.449 157.65C196.231 157.595 196.034 157.531 195.857 157.456L196.173 156.65ZM197.53 154.537C197.666 154.537 197.799 154.517 197.928 154.476C198.058 154.435 198.173 154.388 198.275 154.333C198.377 154.279 198.462 154.228 198.53 154.18C198.605 154.126 198.653 154.092 198.673 154.078C198.653 153.371 198.558 152.85 198.388 152.517C198.217 152.177 197.942 152.007 197.561 152.007C197.214 152.007 196.962 152.126 196.806 152.364C196.649 152.602 196.571 152.908 196.571 153.282C196.571 153.459 196.588 153.626 196.622 153.782C196.656 153.932 196.711 154.065 196.785 154.18C196.86 154.289 196.959 154.378 197.081 154.446C197.204 154.507 197.354 154.537 197.53 154.537Z" fill="#042776"/>
<path d="M221.563 145.729H227.858C228.273 145.729 228.619 145.342 228.619 144.877V137.517C228.619 137.052 228.273 136.665 227.858 136.665H221.563C221.148 136.665 220.802 137.052 220.802 137.517V144.877C220.802 145.342 221.148 145.729 221.563 145.729Z" fill="#85B8ED"/>
<path d="M220.802 144.877H227.097C227.512 144.877 227.858 144.489 227.858 144.024V136.664C227.858 136.199 227.512 135.812 227.097 135.812H220.802C220.387 135.812 220.041 136.199 220.041 136.664V144.024C220.041 144.489 220.387 144.877 220.802 144.877Z" fill="#EA5E5D"/>
<path d="M224.537 143.095H222.116V138.447H225.782V141.778" stroke="white" stroke-width="0.54666" stroke-miterlimit="10"/>
<path d="M222.808 139.221C222.808 139.066 222.947 138.911 223.085 138.911C223.223 138.911 223.362 139.066 223.362 139.221C223.362 139.376 223.223 139.531 223.085 139.531C222.878 139.531 222.808 139.376 222.808 139.221Z" fill="white"/>
<path d="M224.538 139.221C224.538 139.066 224.676 138.911 224.814 138.911C224.953 138.911 225.091 139.066 225.091 139.221C225.091 139.376 224.953 139.531 224.814 139.531C224.676 139.531 224.538 139.376 224.538 139.221Z" fill="white"/>
<path d="M223.016 139.066V137.981C223.016 137.439 223.431 136.974 223.915 136.974C224.399 136.974 224.814 137.439 224.814 137.981V139.066" stroke="white" stroke-width="0.364406" stroke-miterlimit="10"/>
<path d="M225.782 143.095V142.088" stroke="white" stroke-width="0.54666" stroke-miterlimit="10"/>
<path d="M225.783 144.102V143.094" stroke="white" stroke-width="0.54666" stroke-miterlimit="10"/>
<path d="M225.782 143.094H224.883" stroke="white" stroke-width="0.54666" stroke-miterlimit="10"/>
<path d="M226.682 143.094H225.783" stroke="white" stroke-width="0.54666" stroke-miterlimit="10"/>
<path d="M208.766 122.952H218.312L217.551 105.442L220.802 109.859L225.16 104.668C225.16 104.668 219.488 96.9203 218.519 96.223C217.551 95.5257 212.916 95.2158 212.916 95.2158C212.847 96.8428 211.671 99.5544 208.766 99.5544C205.861 99.5544 204.754 96.8428 204.615 95.2158C204.615 95.2158 199.981 95.6032 199.012 96.223C197.975 96.8428 192.372 104.668 192.372 104.668L196.73 109.859L199.981 105.442L199.22 122.952H208.766Z" fill="#3ED9C7"/>
<path d="M227.927 70.6565H192.303C191.611 70.6565 191.058 70.0367 191.058 69.2619V29.3626C191.058 28.5878 191.611 27.968 192.303 27.968H227.927C228.619 27.968 229.172 28.5878 229.172 29.3626V69.2619C229.242 70.0367 228.619 70.6565 227.927 70.6565Z" fill="#85B8ED"/>
<path d="M226.543 69.1067H190.919C190.227 69.1067 189.674 68.4869 189.674 67.7121V27.8128C189.674 27.038 190.227 26.4182 190.919 26.4182H226.543C227.235 26.4182 227.789 27.038 227.789 27.8128V67.7121C227.789 68.4869 227.235 69.1067 226.543 69.1067Z" fill="#FFFFF8"/>
<path d="M191.965 82.5677C191.747 82.5473 191.543 82.5133 191.352 82.4656C191.169 82.4112 190.999 82.3534 190.842 82.2922C190.692 82.2309 190.56 82.1731 190.444 82.1187C190.335 82.0575 190.254 82.0098 190.199 81.9758L190.638 81.0778C190.686 81.1119 190.767 81.1595 190.883 81.2207C190.999 81.2819 191.128 81.3466 191.271 81.4146C191.42 81.4758 191.573 81.5302 191.73 81.5779C191.886 81.6255 192.033 81.6493 192.169 81.6493C192.849 81.6493 193.189 81.367 193.189 80.8023C193.189 80.6663 193.165 80.554 193.118 80.4656C193.077 80.3771 193.012 80.3023 192.924 80.2411C192.842 80.1731 192.74 80.1152 192.618 80.0676C192.502 80.0132 192.369 79.9588 192.22 79.9043C191.934 79.7955 191.679 79.6832 191.454 79.5676C191.237 79.4451 191.05 79.3091 190.893 79.1594C190.737 79.0098 190.618 78.8397 190.536 78.6492C190.454 78.4587 190.413 78.241 190.413 77.9961C190.413 77.8056 190.451 77.622 190.526 77.4451C190.601 77.2682 190.706 77.1117 190.842 76.9757C190.978 76.8328 191.141 76.7138 191.332 76.6185C191.522 76.5165 191.733 76.445 191.965 76.4042V75.5981H192.801V76.3838C192.978 76.4042 193.148 76.4348 193.312 76.4757C193.475 76.5165 193.621 76.5607 193.75 76.6083C193.88 76.6559 193.988 76.7036 194.077 76.7512C194.172 76.792 194.24 76.8226 194.281 76.843L193.873 77.6798C193.818 77.6526 193.74 77.6186 193.638 77.5777C193.543 77.5301 193.434 77.4825 193.312 77.4349C193.189 77.3873 193.056 77.3464 192.914 77.3124C192.771 77.2784 192.628 77.2614 192.485 77.2614C192.254 77.2614 192.046 77.309 191.862 77.4043C191.686 77.4927 191.597 77.6458 191.597 77.8635C191.597 77.9995 191.621 78.122 191.669 78.2308C191.723 78.3329 191.798 78.4247 191.893 78.5063C191.995 78.588 192.118 78.6662 192.26 78.741C192.41 78.8091 192.58 78.8771 192.771 78.9451C193.022 79.0472 193.247 79.1526 193.444 79.2615C193.641 79.3703 193.808 79.4928 193.944 79.6288C194.08 79.7649 194.182 79.9213 194.25 80.0982C194.325 80.2751 194.363 80.4826 194.363 80.7207C194.363 80.9248 194.329 81.1221 194.261 81.3125C194.199 81.503 194.101 81.6799 193.965 81.8432C193.835 82.0064 193.672 82.1493 193.475 82.2718C193.284 82.3874 193.06 82.4724 192.801 82.5269V83.5269H191.965V82.5677ZM197.889 76.1797V82.6799H196.725V77.5369C196.515 77.7342 196.297 77.9111 196.072 78.0675C195.848 78.2172 195.637 78.3193 195.44 78.3737L194.98 77.5369C195.144 77.4689 195.307 77.4009 195.47 77.3328C195.634 77.258 195.797 77.1696 195.96 77.0675C196.123 76.9655 196.29 76.8464 196.46 76.7104C196.637 76.5675 196.824 76.3906 197.021 76.1797H197.889ZM201.846 76.1287C202.267 76.1287 202.625 76.2001 202.917 76.343C203.216 76.4859 203.461 76.6934 203.652 76.9655C203.842 77.2376 203.978 77.5743 204.06 77.9757C204.148 78.3771 204.193 78.8329 204.193 79.3431C204.193 79.8533 204.145 80.3159 204.05 80.7309C203.961 81.1459 203.815 81.503 203.611 81.8024C203.414 82.1017 203.159 82.333 202.846 82.4963C202.533 82.6595 202.155 82.7412 201.713 82.7412C201.291 82.7412 200.931 82.6697 200.631 82.5269C200.339 82.384 200.097 82.1765 199.907 81.9044C199.716 81.6255 199.577 81.2853 199.488 80.884C199.407 80.4826 199.366 80.0234 199.366 79.5064C199.366 78.9961 199.41 78.5335 199.499 78.1186C199.594 77.7036 199.74 77.3498 199.937 77.0573C200.142 76.758 200.4 76.5301 200.713 76.3736C201.026 76.2103 201.403 76.1287 201.846 76.1287ZM201.713 77.0165C201.502 77.0165 201.325 77.0743 201.182 77.19C201.046 77.2988 200.937 77.4587 200.856 77.6696C200.774 77.8737 200.716 78.122 200.682 78.4145C200.648 78.707 200.631 79.0336 200.631 79.3941C200.631 79.7343 200.645 80.054 200.672 80.3533C200.706 80.6527 200.764 80.9146 200.846 81.1391C200.934 81.3568 201.057 81.5302 201.213 81.6595C201.369 81.7887 201.577 81.8534 201.835 81.8534C202.046 81.8534 202.22 81.7956 202.356 81.6799C202.499 81.5643 202.611 81.4044 202.693 81.2003C202.774 80.9894 202.832 80.7377 202.866 80.4452C202.9 80.1526 202.917 79.8261 202.917 79.4655C202.917 79.1254 202.904 78.8091 202.876 78.5165C202.849 78.2172 202.791 77.9587 202.703 77.741C202.614 77.5165 202.492 77.3396 202.335 77.2104C202.179 77.0811 201.972 77.0165 201.713 77.0165ZM206.045 81.2513C206.283 81.2513 206.463 81.3227 206.585 81.4656C206.715 81.6085 206.779 81.7921 206.779 82.0166C206.779 82.2343 206.715 82.418 206.585 82.5677C206.456 82.7173 206.266 82.7922 206.014 82.7922C205.776 82.7922 205.592 82.7173 205.463 82.5677C205.334 82.418 205.269 82.2411 205.269 82.0371C205.269 81.8194 205.334 81.6357 205.463 81.486C205.592 81.3296 205.786 81.2513 206.045 81.2513ZM190.832 93.6595C190.988 93.7139 191.155 93.7581 191.332 93.7921C191.509 93.8262 191.686 93.8432 191.862 93.8432C192.155 93.8432 192.393 93.7887 192.577 93.6799C192.767 93.5711 192.917 93.4248 193.026 93.2411C193.135 93.0506 193.209 92.8329 193.25 92.588C193.298 92.3363 193.325 92.071 193.332 91.7921C193.278 91.8601 193.206 91.9315 193.118 92.0064C193.036 92.0812 192.937 92.1492 192.822 92.2105C192.713 92.2717 192.587 92.3227 192.444 92.3635C192.301 92.4044 192.141 92.4248 191.965 92.4248C191.366 92.4248 190.896 92.2411 190.556 91.8737C190.216 91.4996 190.046 90.9757 190.046 90.3022C190.046 89.9961 190.094 89.7138 190.189 89.4553C190.291 89.19 190.437 88.9621 190.628 88.7716C190.818 88.5743 191.053 88.4212 191.332 88.3124C191.618 88.2035 191.944 88.1491 192.311 88.1491C192.74 88.1491 193.097 88.2308 193.383 88.394C193.675 88.5573 193.91 88.7852 194.087 89.0777C194.264 89.3702 194.39 89.7206 194.465 90.1288C194.539 90.5301 194.577 90.9723 194.577 91.4553C194.577 91.8907 194.526 92.3091 194.424 92.7105C194.322 93.1051 194.158 93.452 193.934 93.7513C193.716 94.0507 193.434 94.2922 193.087 94.4758C192.74 94.6527 192.318 94.7412 191.822 94.7412C191.57 94.7412 191.332 94.7139 191.107 94.6595C190.89 94.6051 190.692 94.5405 190.516 94.4656L190.832 93.6595ZM192.189 91.5472C192.325 91.5472 192.458 91.5268 192.587 91.486C192.716 91.4451 192.832 91.3975 192.934 91.3431C193.036 91.2887 193.121 91.2377 193.189 91.19C193.264 91.1356 193.312 91.1016 193.332 91.088C193.312 90.3805 193.216 89.8601 193.046 89.5267C192.876 89.1866 192.601 89.0165 192.22 89.0165C191.873 89.0165 191.621 89.1355 191.465 89.3736C191.308 89.6118 191.23 89.9179 191.23 90.292C191.23 90.4689 191.247 90.6356 191.281 90.7921C191.315 90.9417 191.369 91.0744 191.444 91.19C191.519 91.2989 191.618 91.3873 191.74 91.4553C191.862 91.5166 192.012 91.5472 192.189 91.5472ZM196.173 93.6595C196.33 93.7139 196.496 93.7581 196.673 93.7921C196.85 93.8262 197.027 93.8432 197.204 93.8432C197.496 93.8432 197.734 93.7887 197.918 93.6799C198.109 93.5711 198.258 93.4248 198.367 93.2411C198.476 93.0506 198.551 92.8329 198.592 92.588C198.639 92.3363 198.666 92.071 198.673 91.7921C198.619 91.8601 198.547 91.9315 198.459 92.0064C198.377 92.0812 198.279 92.1492 198.163 92.2105C198.054 92.2717 197.928 92.3227 197.786 92.3635C197.643 92.4044 197.483 92.4248 197.306 92.4248C196.707 92.4248 196.238 92.2411 195.898 91.8737C195.558 91.4996 195.387 90.9757 195.387 90.3022C195.387 89.9961 195.435 89.7138 195.53 89.4553C195.632 89.19 195.779 88.9621 195.969 88.7716C196.16 88.5743 196.394 88.4212 196.673 88.3124C196.959 88.2035 197.285 88.1491 197.653 88.1491C198.081 88.1491 198.439 88.2308 198.724 88.394C199.017 88.5573 199.252 88.7852 199.428 89.0777C199.605 89.3702 199.731 89.7206 199.806 90.1288C199.881 90.5301 199.918 90.9723 199.918 91.4553C199.918 91.8907 199.867 92.3091 199.765 92.7105C199.663 93.1051 199.5 93.452 199.275 93.7513C199.058 94.0507 198.775 94.2922 198.428 94.4758C198.081 94.6527 197.66 94.7412 197.163 94.7412C196.911 94.7412 196.673 94.7139 196.449 94.6595C196.231 94.6051 196.034 94.5405 195.857 94.4656L196.173 93.6595ZM197.53 91.5472C197.666 91.5472 197.799 91.5268 197.928 91.486C198.058 91.4451 198.173 91.3975 198.275 91.3431C198.377 91.2887 198.462 91.2377 198.53 91.19C198.605 91.1356 198.653 91.1016 198.673 91.088C198.653 90.3805 198.558 89.8601 198.388 89.5267C198.217 89.1866 197.942 89.0165 197.561 89.0165C197.214 89.0165 196.962 89.1355 196.806 89.3736C196.649 89.6118 196.571 89.9179 196.571 90.292C196.571 90.4689 196.588 90.6356 196.622 90.7921C196.656 90.9417 196.711 91.0744 196.785 91.19C196.86 91.2989 196.959 91.3873 197.081 91.4553C197.204 91.5166 197.354 91.5472 197.53 91.5472Z" fill="#042776"/>
<path d="M221.563 82.742H227.858C228.273 82.742 228.619 82.3546 228.619 81.8898V74.5297C228.619 74.0649 228.273 73.6775 227.858 73.6775H221.563C221.148 73.6775 220.802 74.0649 220.802 74.5297V81.8898C220.802 82.3546 221.148 82.742 221.563 82.742Z" fill="#85B8ED"/>
<path d="M220.802 81.89H227.097C227.512 81.89 227.858 81.5026 227.858 81.0377V73.6777C227.858 73.2128 227.512 72.8254 227.097 72.8254H220.802C220.387 72.8254 220.041 73.2128 220.041 73.6777V81.0377C220.041 81.5026 220.387 81.89 220.802 81.89Z" fill="#EA5E5D"/>
<path d="M224.537 80.1082H222.116V75.4597H225.782V78.7911" stroke="white" stroke-width="0.54666" stroke-miterlimit="10"/>
<path d="M223.015 76.5441C223.168 76.5441 223.292 76.4054 223.292 76.2342C223.292 76.0631 223.168 75.9243 223.015 75.9243C222.863 75.9243 222.739 76.0631 222.739 76.2342C222.739 76.4054 222.863 76.5441 223.015 76.5441Z" fill="white"/>
<path d="M224.814 76.5439C224.967 76.5439 225.091 76.4051 225.091 76.234C225.091 76.0628 224.967 75.9241 224.814 75.9241C224.661 75.9241 224.538 76.0628 224.538 76.234C224.538 76.4051 224.661 76.5439 224.814 76.5439Z" fill="white"/>
<path d="M223.016 76.0796V74.995C223.016 74.4526 223.431 73.9878 223.915 73.9878C224.399 73.9878 224.814 74.4526 224.814 74.995V76.0796" stroke="white" stroke-width="0.364406" stroke-miterlimit="10"/>
<path d="M225.782 80.1082V79.1011" stroke="white" stroke-width="0.54666" stroke-miterlimit="10"/>
<path d="M225.782 81.1151V80.1079" stroke="white" stroke-width="0.54666" stroke-miterlimit="10"/>
<path d="M225.782 80.1079H224.883" stroke="white" stroke-width="0.54666" stroke-miterlimit="10"/>
<path d="M226.682 80.1079H225.782" stroke="white" stroke-width="0.54666" stroke-miterlimit="10"/>
<path d="M200.05 36.7998C197.076 39.9763 197.56 43.6176 198.597 47.8012C199.635 51.9848 200.119 60.0422 200.119 60.0422H202.748C202.748 60.0422 202.471 51.1326 204.27 50.5128C206.068 49.8155 209.458 57.4855 210.149 58.7251C210.841 59.8872 212.225 60.1196 213.816 60.1196C215.407 60.1196 223.016 60.1196 223.016 60.1196C223.016 60.1196 225.714 57.7954 220.802 55.0838C217.62 53.3794 217.067 52.9145 217.067 52.9145C217.067 52.9145 212.916 52.7596 208.489 47.8787C206.76 46.0193 204.685 40.8285 203.163 38.9691C201.503 36.7998 200.05 36.7998 200.05 36.7998Z" fill="#FFC854"/>
<path d="M183.932 133.721H148.308C147.616 133.721 147.062 133.101 147.062 132.326V92.4268C147.062 91.652 147.616 91.0322 148.308 91.0322H183.932C184.624 91.0322 185.177 91.652 185.177 92.4268V132.326C185.177 133.023 184.624 133.721 183.932 133.721Z" fill="#85B8ED"/>
<path d="M182.549 132.093H146.925C146.233 132.093 145.68 131.473 145.68 130.699V90.7993C145.68 90.0246 146.233 89.4048 146.925 89.4048H182.549C183.241 89.4048 183.794 90.0246 183.794 90.7993V130.699C183.794 131.473 183.241 132.093 182.549 132.093Z" fill="#FFFFF8"/>
<path d="M147.96 145.558C147.742 145.538 147.538 145.503 147.347 145.456C147.164 145.401 146.994 145.344 146.837 145.282C146.687 145.221 146.555 145.163 146.439 145.109C146.33 145.048 146.249 145 146.194 144.966L146.633 144.068C146.681 144.102 146.762 144.15 146.878 144.211C146.994 144.272 147.123 144.337 147.266 144.405C147.415 144.466 147.568 144.52 147.725 144.568C147.881 144.616 148.028 144.64 148.164 144.64C148.844 144.64 149.184 144.357 149.184 143.793C149.184 143.656 149.16 143.544 149.113 143.456C149.072 143.367 149.007 143.293 148.919 143.231C148.837 143.163 148.735 143.105 148.613 143.058C148.497 143.003 148.364 142.949 148.215 142.895C147.929 142.786 147.674 142.673 147.449 142.558C147.232 142.435 147.045 142.299 146.888 142.15C146.732 142 146.613 141.83 146.531 141.639C146.449 141.449 146.408 141.231 146.408 140.986C146.408 140.796 146.446 140.612 146.521 140.435C146.596 140.258 146.701 140.102 146.837 139.966C146.973 139.823 147.136 139.704 147.327 139.609C147.517 139.507 147.728 139.435 147.96 139.394V138.588H148.796V139.374C148.973 139.394 149.143 139.425 149.307 139.466C149.47 139.507 149.616 139.551 149.745 139.599C149.875 139.646 149.983 139.694 150.072 139.741C150.167 139.782 150.235 139.813 150.276 139.833L149.868 140.67C149.813 140.643 149.735 140.609 149.633 140.568C149.538 140.52 149.429 140.473 149.307 140.425C149.184 140.377 149.051 140.337 148.909 140.303C148.766 140.269 148.623 140.252 148.48 140.252C148.249 140.252 148.041 140.299 147.857 140.394C147.681 140.483 147.592 140.636 147.592 140.854C147.592 140.99 147.616 141.112 147.664 141.221C147.718 141.323 147.793 141.415 147.888 141.497C147.99 141.578 148.113 141.656 148.255 141.731C148.405 141.799 148.575 141.867 148.766 141.935C149.017 142.037 149.242 142.143 149.439 142.252C149.636 142.361 149.803 142.483 149.939 142.619C150.075 142.755 150.177 142.912 150.245 143.088C150.32 143.265 150.358 143.473 150.358 143.711C150.358 143.915 150.324 144.112 150.256 144.303C150.194 144.493 150.096 144.67 149.96 144.833C149.83 144.997 149.667 145.14 149.47 145.262C149.279 145.378 149.055 145.463 148.796 145.517V146.517H147.96V145.558ZM152.118 144.65C152.275 144.704 152.442 144.748 152.618 144.782C152.795 144.816 152.972 144.833 153.149 144.833C153.442 144.833 153.68 144.779 153.863 144.67C154.054 144.561 154.203 144.415 154.312 144.231C154.421 144.041 154.496 143.823 154.537 143.578C154.584 143.327 154.612 143.061 154.618 142.782C154.564 142.85 154.493 142.922 154.404 142.997C154.323 143.071 154.224 143.139 154.108 143.201C153.999 143.262 153.874 143.313 153.731 143.354C153.588 143.395 153.428 143.415 153.251 143.415C152.652 143.415 152.183 143.231 151.843 142.864C151.503 142.49 151.333 141.966 151.333 141.292C151.333 140.986 151.38 140.704 151.476 140.446C151.578 140.18 151.724 139.952 151.914 139.762C152.105 139.565 152.339 139.411 152.618 139.303C152.904 139.194 153.231 139.139 153.598 139.139C154.027 139.139 154.384 139.221 154.669 139.384C154.962 139.548 155.197 139.775 155.374 140.068C155.55 140.36 155.676 140.711 155.751 141.119C155.826 141.52 155.863 141.963 155.863 142.446C155.863 142.881 155.812 143.299 155.71 143.701C155.608 144.095 155.445 144.442 155.221 144.742C155.003 145.041 154.721 145.282 154.374 145.466C154.027 145.643 153.605 145.731 153.108 145.731C152.857 145.731 152.618 145.704 152.394 145.65C152.176 145.595 151.979 145.531 151.802 145.456L152.118 144.65ZM153.476 142.537C153.612 142.537 153.744 142.517 153.874 142.476C154.003 142.435 154.118 142.388 154.22 142.333C154.323 142.279 154.408 142.228 154.476 142.18C154.55 142.126 154.598 142.092 154.618 142.078C154.598 141.371 154.503 140.85 154.333 140.517C154.163 140.177 153.887 140.007 153.506 140.007C153.159 140.007 152.908 140.126 152.751 140.364C152.595 140.602 152.516 140.908 152.516 141.282C152.516 141.459 152.533 141.626 152.567 141.782C152.601 141.932 152.656 142.065 152.731 142.18C152.805 142.289 152.904 142.378 153.027 142.446C153.149 142.507 153.299 142.537 153.476 142.537ZM157.705 144.242C157.943 144.242 158.123 144.313 158.245 144.456C158.375 144.599 158.439 144.782 158.439 145.007C158.439 145.225 158.375 145.408 158.245 145.558C158.116 145.708 157.926 145.782 157.674 145.782C157.436 145.782 157.252 145.708 157.123 145.558C156.994 145.408 156.929 145.231 156.929 145.027C156.929 144.81 156.994 144.626 157.123 144.476C157.252 144.32 157.446 144.242 157.705 144.242ZM146.827 156.65C146.983 156.704 147.15 156.748 147.327 156.782C147.504 156.816 147.681 156.833 147.857 156.833C148.15 156.833 148.388 156.779 148.572 156.67C148.762 156.561 148.912 156.415 149.021 156.231C149.13 156.041 149.204 155.823 149.245 155.578C149.293 155.327 149.32 155.061 149.327 154.782C149.273 154.85 149.201 154.922 149.113 154.997C149.031 155.071 148.932 155.139 148.817 155.201C148.708 155.262 148.582 155.313 148.439 155.354C148.296 155.395 148.136 155.415 147.96 155.415C147.361 155.415 146.891 155.231 146.551 154.864C146.211 154.49 146.041 153.966 146.041 153.292C146.041 152.986 146.089 152.704 146.184 152.446C146.286 152.18 146.432 151.952 146.623 151.762C146.813 151.565 147.048 151.411 147.327 151.303C147.613 151.194 147.939 151.139 148.306 151.139C148.735 151.139 149.092 151.221 149.378 151.384C149.67 151.548 149.905 151.775 150.082 152.068C150.259 152.36 150.385 152.711 150.46 153.119C150.534 153.52 150.572 153.963 150.572 154.446C150.572 154.881 150.521 155.299 150.419 155.701C150.317 156.095 150.153 156.442 149.929 156.742C149.711 157.041 149.429 157.282 149.082 157.466C148.735 157.643 148.313 157.731 147.817 157.731C147.565 157.731 147.327 157.704 147.102 157.65C146.885 157.595 146.687 157.531 146.511 157.456L146.827 156.65ZM148.184 154.537C148.32 154.537 148.453 154.517 148.582 154.476C148.711 154.435 148.827 154.388 148.929 154.333C149.031 154.279 149.116 154.228 149.184 154.18C149.259 154.126 149.307 154.092 149.327 154.078C149.307 153.371 149.211 152.85 149.041 152.517C148.871 152.177 148.596 152.007 148.215 152.007C147.868 152.007 147.616 152.126 147.46 152.364C147.303 152.602 147.225 152.908 147.225 153.282C147.225 153.459 147.242 153.626 147.276 153.782C147.31 153.932 147.364 154.065 147.439 154.18C147.514 154.289 147.613 154.378 147.735 154.446C147.857 154.507 148.007 154.537 148.184 154.537ZM152.168 156.65C152.325 156.704 152.491 156.748 152.668 156.782C152.845 156.816 153.022 156.833 153.199 156.833C153.491 156.833 153.729 156.779 153.913 156.67C154.104 156.561 154.253 156.415 154.362 156.231C154.471 156.041 154.546 155.823 154.587 155.578C154.634 155.327 154.661 155.061 154.668 154.782C154.614 154.85 154.542 154.922 154.454 154.997C154.372 155.071 154.274 155.139 154.158 155.201C154.049 155.262 153.923 155.313 153.781 155.354C153.638 155.395 153.478 155.415 153.301 155.415C152.702 155.415 152.233 155.231 151.893 154.864C151.553 154.49 151.382 153.966 151.382 153.292C151.382 152.986 151.43 152.704 151.525 152.446C151.627 152.18 151.774 151.952 151.964 151.762C152.155 151.565 152.389 151.411 152.668 151.303C152.954 151.194 153.28 151.139 153.648 151.139C154.076 151.139 154.434 151.221 154.719 151.384C155.012 151.548 155.247 151.775 155.423 152.068C155.6 152.36 155.726 152.711 155.801 153.119C155.876 153.52 155.913 153.963 155.913 154.446C155.913 154.881 155.862 155.299 155.76 155.701C155.658 156.095 155.495 156.442 155.27 156.742C155.053 157.041 154.77 157.282 154.423 157.466C154.076 157.643 153.655 157.731 153.158 157.731C152.906 157.731 152.668 157.704 152.444 157.65C152.226 157.595 152.029 157.531 151.852 157.456L152.168 156.65ZM153.525 154.537C153.661 154.537 153.794 154.517 153.923 154.476C154.053 154.435 154.168 154.388 154.27 154.333C154.372 154.279 154.457 154.228 154.525 154.18C154.6 154.126 154.648 154.092 154.668 154.078C154.648 153.371 154.553 152.85 154.383 152.517C154.212 152.177 153.937 152.007 153.556 152.007C153.209 152.007 152.957 152.126 152.801 152.364C152.644 152.602 152.566 152.908 152.566 153.282C152.566 153.459 152.583 153.626 152.617 153.782C152.651 153.932 152.706 154.065 152.78 154.18C152.855 154.289 152.954 154.378 153.076 154.446C153.199 154.507 153.349 154.537 153.525 154.537Z" fill="#042776"/>
<path d="M177.568 145.729H183.863C184.278 145.729 184.624 145.342 184.624 144.877V137.517C184.624 137.052 184.278 136.665 183.863 136.665H177.568C177.153 136.665 176.807 137.052 176.807 137.517V144.877C176.807 145.342 177.153 145.729 177.568 145.729Z" fill="#85B8ED"/>
<path d="M176.808 144.877H183.103C183.518 144.877 183.863 144.489 183.863 144.024V136.664C183.863 136.199 183.518 135.812 183.103 135.812H176.808C176.393 135.812 176.047 136.199 176.047 136.664V144.024C176.047 144.489 176.393 144.877 176.808 144.877Z" fill="#EA5E5D"/>
<path d="M180.543 143.095H178.122V138.447H181.788V141.778" stroke="white" stroke-width="0.54666" stroke-miterlimit="10"/>
<path d="M178.814 139.221C178.814 139.066 178.952 138.911 179.091 138.911C179.229 138.911 179.367 139.066 179.367 139.221C179.367 139.376 179.229 139.531 179.091 139.531C178.883 139.531 178.814 139.376 178.814 139.221Z" fill="white"/>
<path d="M180.543 139.221C180.543 139.066 180.681 138.911 180.82 138.911C180.958 138.911 181.096 139.066 181.096 139.221C181.096 139.376 180.958 139.531 180.82 139.531C180.681 139.531 180.543 139.376 180.543 139.221Z" fill="white"/>
<path d="M179.021 139.066V137.981C179.021 137.439 179.436 136.974 179.921 136.974C180.405 136.974 180.82 137.439 180.82 137.981V139.066" stroke="white" stroke-width="0.364406" stroke-miterlimit="10"/>
<path d="M181.789 143.095V142.088" stroke="white" stroke-width="0.54666" stroke-miterlimit="10"/>
<path d="M181.789 144.102V143.094" stroke="white" stroke-width="0.54666" stroke-miterlimit="10"/>
<path d="M181.789 143.094H180.89" stroke="white" stroke-width="0.54666" stroke-miterlimit="10"/>
<path d="M182.688 143.094H181.789" stroke="white" stroke-width="0.54666" stroke-miterlimit="10"/>
<path d="M156.055 99.7866C153.081 102.963 153.565 106.604 154.603 110.788C155.64 114.972 156.125 123.029 156.125 123.029H158.753C158.753 123.029 158.477 114.119 160.275 113.5C162.074 112.802 165.463 120.472 166.155 121.712C166.847 122.874 168.23 123.106 169.821 123.106C171.412 123.106 179.021 123.106 179.021 123.106C179.021 123.106 181.719 120.782 176.808 118.071C173.626 116.366 173.072 115.901 173.072 115.901C173.072 115.901 168.922 115.746 164.495 110.865C162.765 109.006 160.69 103.815 159.168 101.956C157.508 99.7866 156.055 99.7866 156.055 99.7866Z" fill="#778FF9"/>
<path d="M208.627 170.908C208.627 170.908 204.754 168.894 205.307 165.873C205.861 162.774 209.043 163.161 208.627 160.682C208.212 158.28 206.137 154.484 208.143 151.772C210.149 149.061 213.539 150.688 213.954 146.427C214.3 143.018 215.683 140.538 218.45 141.313C221.01 142.01 222.877 144.18 222.946 149.448C223.016 155.026 226.474 153.477 226.543 157.583C226.613 161.689 223.638 161.689 222.462 164.478C221.909 165.795 223.361 170.366 219.142 170.986H208.627V170.908Z" fill="#22A482"/>
<path d="M218.312 144.103C218.312 144.103 219.903 159.985 212.847 171.683" stroke="#3B55CE" stroke-width="0.620369" stroke-miterlimit="10" stroke-linecap="round"/>
<path d="M216.375 170.908C216.375 170.908 215.753 167.112 218.035 165.563C220.318 164.013 222.67 162.851 222.393 160.372C222.117 157.893 222.739 154.949 226.475 154.871C228.757 154.871 227.927 152.16 230.21 151.617C231.593 151.307 232.562 152.934 232.7 154.561C232.908 156.421 232.009 158.203 233.046 159.675C234.43 161.612 234.983 165.253 232.009 166.26C229.034 167.267 231.663 170.444 227.651 170.908H216.375Z" fill="#40C7A7"/>
<path d="M230.418 154.097C230.28 159.055 226.544 167.887 220.941 171.683" stroke="#3B55CE" stroke-width="0.620369" stroke-miterlimit="10" stroke-linecap="round"/>
<path d="M291.775 173H0.89926C0.415044 173 0 172.535 0 171.993C0 171.451 0.415044 170.986 0.89926 170.986H291.775C292.259 170.986 292.674 171.451 292.674 171.993C292.605 172.535 292.259 173 291.775 173Z" fill="#638BE2"/>
<path d="M72.4943 131.396H89.6493V146.349H76.6447L72.4943 131.396Z" fill="#778FF9"/>
<path d="M96.4969 131.396H89.6487V146.426H96.4969V131.396Z" fill="#607CE2"/>
<path d="M110.124 131.396H96.4281V146.426H110.124V131.396Z" fill="#FFC854"/>
<path d="M116.35 146.349H110.193V131.396H118.978L116.35 146.349Z" fill="#FFB852"/>
<path d="M84.0464 106.372V101.569C84.0464 99.0121 85.9141 96.9978 88.1276 96.9978C90.4104 96.9978 92.2089 99.0896 92.2089 101.569V106.372" stroke="#FFFFF8" stroke-width="0.838266" stroke-miterlimit="10" stroke-linecap="round"/>
<path d="M93.5231 104.048H76.0913L74.0161 131.397H91.4479L93.5231 104.048Z" fill="#EA5E5D"/>
<path d="M96.5668 104.048H93.5232L91.448 131.397H94.2149H95.9443H98.6421L96.5668 104.048Z" fill="#D34A4A"/>
<path d="M91.448 131.396L95.045 127.755L98.6421 131.396H91.448Z" fill="#A52F2F"/>
<path d="M79.9647 106.76C79.9647 106.295 80.3106 105.985 80.6565 105.985C81.0715 105.985 81.3482 106.373 81.3482 106.76C81.3482 107.225 81.0023 107.535 80.6565 107.535C80.3106 107.535 79.9647 107.225 79.9647 106.76Z" fill="#A52F2F"/>
<path d="M88.1967 106.76C88.1967 106.295 88.5425 105.985 88.8884 105.985C89.3034 105.985 89.5801 106.373 89.5801 106.76C89.5801 107.225 89.2343 107.535 88.8884 107.535C88.5425 107.535 88.1967 107.225 88.1967 106.76Z" fill="#A52F2F"/>
<path d="M80.6566 106.372V101.569C80.6566 99.0121 82.5243 96.9978 84.7379 96.9978C87.0206 96.9978 88.8191 99.0896 88.8191 101.569V106.372" stroke="#FFFFF8" stroke-width="0.838266" stroke-miterlimit="10" stroke-linecap="round"/>
<path d="M104.383 106.372V101.569C104.383 99.0121 106.25 96.9978 108.464 96.9978C110.747 96.9978 112.545 99.0896 112.545 101.569V106.372" stroke="#FFFFF8" stroke-width="0.838266" stroke-miterlimit="10" stroke-linecap="round"/>
<path d="M113.859 104.048H96.4275L94.3523 131.397H111.784L113.859 104.048Z" fill="#778FF9"/>
<path d="M116.903 104.048H113.859L111.784 131.397H114.482H116.211H118.978L116.903 104.048Z" fill="#607CE2"/>
<path d="M111.784 131.396L115.381 127.755L118.978 131.396H111.784Z" fill="#4062C1"/>
<path d="M100.301 106.76C100.301 106.295 100.647 105.985 100.993 105.985C101.339 105.985 101.684 106.372 101.684 106.76C101.684 107.225 101.339 107.535 100.993 107.535C100.647 107.535 100.301 107.225 100.301 106.76Z" fill="#4062C1"/>
<path d="M108.533 106.76C108.533 106.295 108.878 105.985 109.224 105.985C109.639 105.985 109.916 106.372 109.916 106.76C109.916 107.225 109.57 107.535 109.224 107.535C108.809 107.535 108.533 107.225 108.533 106.76Z" fill="#4062C1"/>
<path d="M100.993 106.372V101.569C100.993 99.0121 102.861 96.9978 105.074 96.9978C107.357 96.9978 109.155 99.0896 109.155 101.569V106.372" stroke="#FFFFF8" stroke-width="0.838266" stroke-miterlimit="10" stroke-linecap="round"/>
<path d="M57.4142 103.971H61.2879C63.1556 103.971 64.7466 105.288 65.3 107.225L76.2986 144.8C76.5753 145.729 77.3362 146.349 78.2355 146.349H115.105C116.073 146.349 116.904 145.575 117.111 144.49L121.469 114.972H67.6519" stroke="#001C45" stroke-width="2.34941" stroke-miterlimit="10" stroke-linecap="round"/>
<path d="M112.338 146.349H86.467C78.4428 146.349 72.0096 153.632 72.0096 162.542H110.678" stroke="#001C45" stroke-width="2.29579" stroke-miterlimit="10" stroke-linecap="round"/>
<path d="M75.1914 167.732C75.1914 165.873 76.5057 164.401 78.1659 164.401C79.8261 164.401 81.1403 165.873 81.1403 167.732C81.1403 169.591 79.8261 171.063 78.1659 171.063C76.5057 171.063 75.1914 169.591 75.1914 167.732Z" fill="#001C45"/>
<path d="M77.7512 163.549C77.8204 164.788 77.7512 166.183 76.9211 167.5C76.091 168.817 78.0279 169.669 79.9647 168.352C82.2475 166.803 82.9392 163.471 82.9392 163.471H77.7512V163.549Z" fill="#85B8ED"/>
<path d="M77.5436 167.732C77.5436 167.345 77.8203 167.035 78.1662 167.035C78.512 167.035 78.7887 167.345 78.7887 167.732C78.7887 168.12 78.512 168.429 78.1662 168.429C77.8203 168.429 77.5436 168.12 77.5436 167.732Z" fill="#001C45"/>
<path d="M96.083 167.732C96.083 165.873 97.3973 164.401 99.0575 164.401C100.718 164.401 102.032 165.873 102.032 167.732C102.032 169.591 100.718 171.063 99.0575 171.063C97.3973 171.063 96.083 169.591 96.083 167.732Z" fill="#001C45"/>
<path d="M98.6418 163.549C98.711 164.788 98.6418 166.183 97.8117 167.5C96.9816 168.817 98.9185 169.669 100.855 168.352C103.138 166.803 103.83 163.471 103.83 163.471H98.6418V163.549Z" fill="#85B8ED"/>
<path d="M98.4347 167.732C98.4347 167.345 98.7114 167.035 99.0573 167.035C99.4031 167.035 99.6798 167.345 99.6798 167.732C99.6798 168.12 99.4031 168.429 99.0573 168.429C98.7114 168.429 98.4347 168.12 98.4347 167.732Z" fill="#001C45"/>
<path d="M70.6954 125.509H119.878" stroke="#001C45" stroke-width="1.81527" stroke-miterlimit="10" stroke-linecap="round"/>
<path d="M73.7393 135.968H118.356" stroke="#001C45" stroke-width="1.81527" stroke-miterlimit="10" stroke-linecap="round"/>
<path d="M59.9736 103.971H53.8171" stroke="#EA5E5D" stroke-width="4.11146" stroke-miterlimit="10" stroke-linecap="round"/>
<path d="M45.6541 168.818C45.8617 169.205 45.7233 169.98 44.3398 170.677C42.9564 171.297 40.3969 171.064 39.4285 170.832C38.4601 170.6 37.8375 170.29 36.3157 170.6C34.863 170.909 32.442 170.832 31.6811 170.135C31.4044 169.825 31.6119 169.128 31.6119 169.128L45.6541 168.818Z" fill="#AAEEED"/>
<path d="M32.3709 164.014C32.1634 165.176 31.3333 167.81 31.61 169.127C32.6476 170.134 34.8612 170.212 36.5214 169.747C38.1815 169.282 39.3575 170.212 41.4327 170.367C43.5079 170.522 45.2372 169.825 45.6523 168.895C46.1365 167.81 42.5395 167.036 40.0492 166.183C37.2823 165.254 35.8988 163.704 35.8988 163.704L32.3709 164.014Z" fill="#1E4174"/>
<path d="M36.8 166.183C36.8 166.183 37.2842 164.634 37.9759 164.169" stroke="#AAEEED" stroke-width="0.55393" stroke-miterlimit="10" stroke-linecap="round"/>
<path d="M38.6675 167.036C38.6675 167.036 39.1518 165.486 39.8435 165.021" stroke="#AAEEED" stroke-width="0.55393" stroke-miterlimit="10" stroke-linecap="round"/>
<path d="M40.5351 167.81C40.5351 167.81 41.0193 166.261 41.711 165.796" stroke="#AAEEED" stroke-width="0.55393" stroke-miterlimit="10" stroke-linecap="round"/>
<path d="M32.3734 159.443V164.014C32.3734 164.014 32.8576 164.169 33.0651 164.479C33.2727 164.711 33.5494 165.564 33.8261 165.641C35.1404 165.719 35.9013 163.782 35.9013 163.782L36.3855 159.676L32.3734 159.443Z" fill="#FF9A8D"/>
<path d="M12.4506 169.824C12.2431 170.212 11.5514 170.367 10.3754 169.205C9.26864 168.043 8.36938 165.408 8.16186 164.324C7.88516 163.239 7.88517 162.464 6.98591 161.147C6.08665 159.83 5.18739 157.274 5.39491 156.266C5.53326 155.879 6.15583 155.724 6.15583 155.724L12.4506 169.824Z" fill="#AAEEED"/>
<path d="M10.652 154.329C9.61442 154.639 7.12417 154.949 6.15574 155.724C5.80987 157.196 6.70912 159.52 7.8159 160.992C8.92268 162.464 8.64599 164.091 9.4069 166.26C10.1678 168.429 11.4129 169.824 12.3814 169.901C13.419 169.901 12.5197 165.95 12.1738 163.084C11.7588 159.907 12.3814 157.815 12.3814 157.815L10.652 154.329Z" fill="#1E4174"/>
<path d="M10.7908 159.675C10.7908 159.675 12.2434 159.52 12.9351 159.985" stroke="#AAEEED" stroke-width="0.55393" stroke-miterlimit="10" stroke-linecap="round"/>
<path d="M10.9283 161.922C10.9283 161.922 12.381 161.767 13.0727 162.232" stroke="#AAEEED" stroke-width="0.55393" stroke-miterlimit="10" stroke-linecap="round"/>
<path d="M10.9982 164.169C10.9982 164.169 12.4509 164.014 13.1426 164.478" stroke="#AAEEED" stroke-width="0.55393" stroke-miterlimit="10" stroke-linecap="round"/>
<path d="M12.9351 151.695L10.7215 154.252C10.7215 154.252 10.7907 154.794 10.6524 155.104C10.514 155.414 9.96064 156.034 10.099 156.421C10.5832 157.738 12.5201 157.738 12.5201 157.738L15.7712 154.872L12.9351 151.695Z" fill="#FF9A8D"/>
<path d="M40.2581 94.8289C35.6926 94.8289 32.3723 95.2162 32.3723 95.2162C30.9196 95.9135 28.4294 99.6323 27.6684 101.957C26.9075 104.281 27.2534 108.232 27.5993 110.246C29.7437 121.48 33.2715 127.988 34.1016 132.404C34.5858 135.116 32.1647 133.644 32.1647 140.539C32.1647 146.737 32.3723 159.907 32.3723 159.907C32.3723 159.907 34.1016 160.992 36.3152 160.295C36.3152 160.295 39.7047 138.524 40.1197 136.045C40.7423 132.017 40.9498 130.312 41.019 123.339C41.0881 113.5 40.2581 94.8289 40.2581 94.8289Z" fill="#1E4174"/>
<path d="M15.7021 154.949C15.7021 154.949 29.3985 139.376 30.4361 138.059C31.4737 136.742 35.7625 111.021 36.0392 109.084C36.0392 109.084 40.328 104.203 40.4663 100.097L26.4932 92.2717C25.8707 94.7509 25.3864 94.8284 25.0406 101.336C24.8331 104.668 24.2105 118.303 23.7263 134.495C23.7263 134.495 22.2736 135.348 20.1293 137.749C18.3307 139.686 12.9352 151.695 12.9352 151.695C12.9352 151.695 13.5577 154.096 15.7021 154.949Z" fill="#85B8ED"/>
<path d="M25.0406 101.414C24.8331 104.746 24.2105 118.381 23.7263 134.573C23.7263 134.573 22.2736 135.426 20.1293 137.827C18.3307 139.764 12.9352 151.773 12.9352 151.773C12.9352 151.773 13.0735 152.392 13.4886 153.09C14.8029 150.068 18.3307 142.786 19.9909 140.151C22.1353 136.898 24.6255 135.89 25.0406 135.503C25.4556 135.116 25.2481 133.721 25.3864 130.545C25.5248 127.446 27.185 100.484 27.185 100.484L25.3864 97.3855C25.2481 98.3927 25.1789 99.6323 25.0406 101.414Z" fill="#4E7EAC"/>
<path d="M39.4974 103.583C39.4974 103.583 36.7997 106.372 32.3726 106.372C27.9454 106.372 24.9018 104.203 24.9018 104.203L25.0401 101.414L39.4974 103.583Z" fill="#4E7EAC"/>
<path d="M36.523 92.1948C34.517 96.5334 30.8508 99.1675 29.8823 102.034C28.9139 104.901 28.6372 110.324 27.8071 120.86C27.0462 130.932 26.7003 133.954 26.6312 135.968C25.7319 137.208 23.3108 138.06 20.198 142.863C17.1544 147.512 13.2115 154.949 13.2115 154.949" stroke="#274D79" stroke-width="0.55393" stroke-miterlimit="10"/>
<path d="M34.1016 103.661C34.1016 103.661 33.7557 110.169 28.7752 109.859" stroke="#274D79" stroke-width="0.55393" stroke-miterlimit="10"/>
<path d="M13.5551 149.604C13.8318 151.308 15.6303 153.012 17.7747 153.942" stroke="#274D79" stroke-width="0.55393" stroke-miterlimit="10"/>
<path d="M39.9129 68.5652C40.1896 68.9526 40.328 69.5724 39.7746 71.6642L33.2723 65.5437L39.9129 68.5652Z" fill="#03AA99"/>
<path d="M45.3083 57.0212C45.4467 57.641 46.2767 60.1977 46.5534 60.9724C46.8301 61.7472 45.0316 61.3598 45.0316 61.3598L45.3083 57.0212Z" fill="#BA5964"/>
<path d="M34.5866 65.5438L39.2904 70.3472L41.0198 65.3889L36.3851 59.8882L34.5866 65.5438Z" fill="#FF9A8D"/>
<path d="M40.2589 67.5577C40.2589 67.5577 35.6935 63.6065 36.3852 59.8877L41.0198 65.3884L40.2589 67.5577Z" fill="#BA5964"/>
<path d="M36.3853 59.8877C36.3853 59.8877 36.4545 60.7399 36.662 61.3597C36.8003 61.9795 40.4666 65.2334 41.5733 65.6983C42.6109 66.1631 44.1328 66.3955 44.8937 62.2119C45.6546 58.0283 45.5854 54.1546 43.5794 51.5979C41.5733 48.9638 37.6996 49.8935 35.5552 52.0628C33.4108 54.232 33.6875 59.8877 36.3853 59.8877Z" fill="#FF9A8D"/>
<path d="M36.3852 59.8876L35.6934 62.0569C35.6934 62.0569 34.9325 61.6696 34.2408 59.8876C33.4799 57.9508 32.0964 54.4644 32.7189 52.8375C33.2032 51.5979 34.3791 50.9006 35.5551 50.5907C35.9701 50.5132 36.1085 50.5907 36.2468 50.2033C36.6619 49.2736 37.0077 48.4989 37.8378 47.9566C38.5295 47.4917 39.0829 47.3368 39.913 47.2593C40.7431 47.1818 41.7115 47.4917 42.6108 47.6467C44.4093 47.9566 46.277 47.9566 48.0755 47.6467C48.1447 47.6467 48.2139 47.6467 48.283 47.6467C48.3522 47.7241 48.3522 47.8016 48.3522 47.8791C48.2139 49.5835 47.1071 50.5132 45.7236 51.0556C45.7236 51.0556 47.868 53.2248 46.0003 53.8446C44.1326 54.387 39.7055 52.8375 39.7055 52.8375C39.7055 52.8375 41.7115 54.4644 40.8814 55.0068C40.0514 55.4716 37.2844 54.3095 37.2844 54.3095L37.2152 56.0139C37.2152 56.0139 36.1776 55.2392 35.2784 55.859C34.1716 56.8661 34.6558 59.9651 36.3852 59.8876Z" fill="#001C45"/>
<path d="M36.869 45.4775C36.869 45.4775 34.6554 48.4216 36.6615 51.5205C36.6615 51.5205 34.1021 50.5909 34.2404 47.6468" stroke="#001C45" stroke-width="0.830895" stroke-miterlimit="10" stroke-linecap="round"/>
<path d="M39.2904 71.1996C39.2904 71.1996 39.9821 69.4177 39.6363 68.9528C38.6678 67.4033 35.4858 62.7548 35.0708 63.1422C34.6557 63.6071 33.2723 65.6214 33.2723 65.6214L39.2904 71.1996Z" fill="#3ED9C7"/>
<path d="M39.7747 71.6643C40.1898 73.7561 40.1206 77.165 40.3973 84.4476C40.5356 89.1735 40.9507 102.732 40.9507 102.732C40.9507 102.732 37.7687 105.056 32.3731 104.591C27.2543 104.126 24.9716 101.26 24.9716 101.26C24.9716 101.26 25.5249 82.1233 27.1851 74.6083C29.6754 66.8609 33.2032 65.4663 33.2032 65.4663L39.7747 71.6643Z" fill="#3ED9C7"/>
<path d="M40.7433 93.7448L29.7447 76.2356C30.0906 79.1022 35.6245 94.6745 35.6245 94.6745L36.5237 94.5971C36.5237 94.5971 37.6305 97.4636 38.1147 98.3158C38.4606 98.8582 40.0516 99.4005 40.9508 99.7104C40.8817 98.0059 40.8125 95.9141 40.7433 93.7448Z" fill="#03AA99"/>
<path d="M33.3417 65.5437L39.2907 71.1219L39.8441 71.5867C39.9824 71.9741 40.0516 72.284 39.9824 72.5939L33.3417 65.5437Z" fill="#03AA99"/>
<path d="M43.2335 57.2535C43.2335 56.9437 43.026 56.7112 42.7493 56.7887C42.4726 56.7887 42.2651 57.0211 42.3343 57.331C42.3343 57.6409 42.5418 57.8733 42.8185 57.7959C43.0952 57.7959 43.3027 57.5634 43.2335 57.2535Z" fill="#001C45"/>
<path d="M43.6485 55.8591L41.5042 56.6338C41.5042 56.6338 41.5733 55.7816 42.2651 55.5492C43.1643 55.2393 43.6485 55.8591 43.6485 55.8591Z" fill="#001C45"/>
<path d="M35.6242 56.711C35.9009 56.556 36.3159 56.6335 36.5926 56.8659C36.6618 56.9434 36.5234 57.0984 36.4542 57.0984C35.97 56.8659 35.3475 56.8659 35.14 57.4857C35.14 57.0984 35.3475 56.8659 35.6242 56.711Z" fill="#BA5964"/>
<path d="M35.8995 56.7891C35.9686 56.7891 36.107 56.944 36.0378 56.944C35.9686 57.0215 35.8303 57.099 35.7611 57.1764C35.6228 57.4089 35.6228 57.5638 35.6228 57.7962C35.6919 58.3386 35.9686 58.7259 36.3837 58.8809C35.9686 59.0358 35.4844 58.4935 35.4152 58.1061C35.3461 57.7188 35.4152 57.0215 35.8995 56.7891Z" fill="#BA5964"/>
<path d="M29.5372 74.6855C28.9838 71.2766 34.7944 69.1073 36.3854 73.4459C37.9764 77.707 41.9885 92.3497 41.9885 92.3497C41.9885 92.3497 53.8172 100.717 55.0623 100.562C56.6533 100.407 60.5962 105.21 60.112 105.985C59.6277 106.76 57.6217 107.38 56.2382 106.915C55.0623 106.528 53.9555 104.203 53.4713 103.816C51.1886 102.964 40.1899 98.8576 38.7373 97.463C37.2846 96.0685 29.8831 76.9323 29.5372 74.6855Z" fill="#FF9A8D"/>
<path d="M35.97 71.8191C36.3851 72.8263 37.2843 74.9181 38.1144 78.2495C38.8062 80.8061 41.7114 91.3427 41.7114 91.3427C41.7114 91.3427 39.7746 93.9768 37.0076 94.2867C37.0076 94.2867 34.7941 89.2509 33.4798 86.1519C32.1655 83.0529 29.8827 76.8549 29.3294 75.073C28.776 73.2136 30.5745 70.0372 31.6813 69.8048C32.788 69.5723 35.2091 69.9597 35.97 71.8191Z" fill="#3ED9C7"/>
<path d="M241.831 166.105C241.554 166.415 241.554 167.267 242.8 168.275C244.045 169.282 246.604 169.592 247.642 169.669C248.679 169.669 249.371 169.514 250.755 170.211C252.138 170.909 254.628 171.373 255.458 170.831C255.804 170.599 255.735 169.824 255.735 169.824L241.831 166.105Z" fill="#AAEEED"/>
<path d="M256.012 164.559C256.012 165.721 256.289 168.665 255.805 169.905C254.56 170.602 252.346 170.137 250.755 169.285C249.164 168.433 247.85 169.053 245.705 168.665C243.63 168.278 242.039 167.193 241.832 166.186C241.555 165.024 245.359 165.102 247.919 164.869C250.824 164.637 252.553 163.475 252.553 163.475L256.012 164.559Z" fill="#1E4174"/>
<path d="M251.239 165.64C251.239 165.64 251.032 163.936 250.478 163.316" stroke="#AAEEED" stroke-width="0.566753" stroke-miterlimit="10" stroke-linecap="round"/>
<path d="M249.233 166.028C249.233 166.028 249.025 164.323 248.472 163.704" stroke="#AAEEED" stroke-width="0.566753" stroke-miterlimit="10" stroke-linecap="round"/>
<path d="M247.158 166.415C247.158 166.415 246.951 164.711 246.397 164.091" stroke="#AAEEED" stroke-width="0.566753" stroke-miterlimit="10" stroke-linecap="round"/>
<path d="M256.773 160.372L256.012 164.478C256.012 164.478 255.528 164.555 255.251 164.71C254.974 164.943 254.559 165.718 254.213 165.64C252.899 165.408 252.484 163.238 252.484 163.238L253.038 152.237L256.773 160.372Z" fill="#FF9A8D"/>
<path d="M274.204 170.366C274.274 170.831 274.827 171.373 276.28 170.909C277.801 170.444 279.669 168.507 280.361 167.655C281.053 166.802 281.398 166.105 282.782 165.33C284.165 164.556 286.102 162.774 286.31 161.689C286.31 161.224 285.826 160.837 285.826 160.837L274.204 170.366Z" fill="#AAEEED"/>
<path d="M282.367 157.196C283.128 157.971 285.341 159.597 285.825 160.837C285.549 162.387 283.75 163.936 282.09 164.711C280.499 165.486 280.015 167.113 278.424 168.662C276.833 170.212 275.034 170.831 274.204 170.366C273.236 169.824 275.726 166.648 277.248 164.323C278.977 161.689 279.254 159.443 279.254 159.443L282.367 157.196Z" fill="#1E4174"/>
<path d="M280.015 161.999C280.015 161.999 278.77 161.069 277.94 161.147" stroke="#AAEEED" stroke-width="0.566753" stroke-miterlimit="10" stroke-linecap="round"/>
<path d="M278.977 164.014C278.977 164.014 277.732 163.084 276.902 163.162" stroke="#AAEEED" stroke-width="0.566753" stroke-miterlimit="10" stroke-linecap="round"/>
<path d="M277.94 165.951C277.94 165.951 276.695 165.021 275.865 165.099" stroke="#AAEEED" stroke-width="0.566753" stroke-miterlimit="10" stroke-linecap="round"/>
<path d="M281.329 154.406L282.436 157.196C282.436 157.196 282.16 157.66 282.16 157.97C282.16 158.28 282.367 159.21 282.16 159.442C281.122 160.372 279.462 159.365 279.462 159.365L277.732 155.026L281.329 154.406Z" fill="#FF9A8D"/>
<path d="M256.426 95.061C260.923 93.8989 264.865 91.1873 264.865 91.1873C266.456 91.4972 269.016 96.533 270.192 98.7023C271.437 100.872 267.148 107.612 266.871 108.929C265.142 117.761 263.62 123.959 262.514 127.91C261.753 130.622 260.646 133.953 260.507 135.038C261.614 138.912 256.841 160.682 256.841 160.682C256.841 160.682 254.144 161.612 252.622 159.597C252.622 159.597 253.521 136.045 253.59 133.411C253.798 124.889 254.904 118.768 255.112 115.127C255.942 100.097 256.426 95.061 256.426 95.061Z" fill="#1E4174"/>
<path d="M278.078 156.653C278.078 156.653 267.494 136.819 266.595 134.96C265.834 133.333 262.237 109.006 261.96 106.992C261.96 106.992 256.634 99.3992 256.495 95.2931L266.387 92.1941C267.01 94.7508 270.192 94.7507 272.613 100.871C274.757 106.217 274.135 117.528 273.028 132.171C273.028 132.171 274.827 133.256 275.795 136.2C277.04 140.228 281.467 154.871 281.467 154.871C281.467 154.871 280.43 156.73 278.078 156.653Z" fill="#85B8ED"/>
<path d="M281.467 154.871C281.467 154.871 277.04 140.228 275.795 136.2C274.896 133.256 273.028 132.171 273.028 132.171C274.135 117.606 274.688 106.217 272.613 100.871C270.192 94.7507 267.01 94.7508 266.387 92.1941L256.495 95.2931C256.565 96.8426 257.326 98.8569 258.294 100.794C260.092 100.561 264.865 99.8641 267.563 98.3146C267.563 98.3146 270.192 102.266 270.953 109.626C271.714 116.986 271.783 129.769 271.645 132.326C271.575 133.411 272.89 133.411 274.619 137.207C276.002 140.306 279.392 152.004 280.706 155.801C281.19 155.336 281.467 154.871 281.467 154.871Z" fill="#4E7EAC"/>
<path d="M263.344 94.4409C266.388 100.794 268.947 105.132 269.362 115.127C269.777 125.121 270.469 133.643 270.469 133.643C270.677 134.96 272.614 135.657 274.274 140.306C276.072 145.419 280.361 157.738 280.361 157.738" stroke="#274D79" stroke-width="0.55393" stroke-miterlimit="10"/>
<path d="M267.356 103.506C265.903 104.203 264.243 103.97 262.929 101.569C261.684 99.0896 260.37 94.751 260.37 94.751" stroke="#274D79" stroke-width="0.55393" stroke-miterlimit="10"/>
<path d="M275.865 154.871C275.865 154.871 280.154 155.258 281.468 151.927" stroke="#274D79" stroke-width="0.55393" stroke-miterlimit="10"/>
<path d="M266.388 68.2549C266.388 68.2549 266.941 68.7197 267.425 68.7197C268.255 69.1071 270.261 70.7341 270.676 71.6638C271.783 73.3682 271.645 77.087 270.192 81.7354C269.5 84.0597 266.18 88.7856 268.67 94.9061C268.67 94.9061 262.168 98.8573 256.15 95.5259C256.081 92.1945 256.772 90.1802 256.842 86.4614C256.011 85.4542 255.181 83.5174 255.112 82.3552C254.836 77.7842 258.917 76.4672 262.03 71.3539C262.929 69.9593 263.551 70.0368 264.797 68.9521C265.627 68.2549 266.388 68.2549 266.388 68.2549Z" fill="#3ED9C7"/>
<path d="M270.261 81.7356C270.261 81.6581 270.261 81.6581 270.33 81.5806L269.915 79.7987L267.978 74.6079L265.972 74.9953C265.765 77.8618 266.042 82.8202 266.802 86.4615C267.079 87.8561 267.494 89.2506 267.84 90.4127C267.84 86.4615 269.708 83.44 270.261 81.7356Z" fill="#03AA99"/>
<path d="M262.099 71.2761C262.099 71.9734 260.992 73.4454 261.269 74.4526C261.545 75.4598 262.86 74.685 263.897 73.5229C264.935 72.3608 266.111 69.6492 267.494 68.7195C267.494 68.7195 266.941 68.3321 266.803 68.0222L262.099 71.2761Z" fill="#FF9A8D"/>
<path d="M264.451 51.2103C264.451 51.2103 263.206 48.2663 259.125 48.9635C255.043 49.6608 254.49 54.8516 254.767 56.6335C255.251 59.2676 257.326 60.5847 257.326 60.5847L264.451 51.2103Z" fill="#001C45"/>
<path d="M264.244 63.3738L266.042 65.1557L266.803 68.0997C266.803 68.0997 265.696 68.952 265.281 69.6492C264.728 70.5014 263.552 72.6707 262.169 72.8257C262.169 72.8257 262.307 70.8888 262.099 69.8816C261.892 68.8745 261.269 66.7827 261.269 66.7827L264.244 63.3738Z" fill="#FF9A8D"/>
<path d="M264.244 63.3738C264.244 63.3738 264.52 64.6134 264.451 65.4656C264.382 66.3178 263.621 67.6349 261.892 69.0294C261.615 68.0223 261.269 66.8601 261.269 66.8601L264.244 63.3738Z" fill="#BA5964"/>
<path d="M256.773 59.5774C256.427 60.8945 255.043 62.8313 255.389 63.1412C255.666 63.4511 256.773 63.3736 256.773 63.3736C256.773 63.3736 257.603 62.4439 257.326 61.1269C257.049 59.8098 256.773 59.5774 256.773 59.5774Z" fill="#BA5964"/>
<path d="M259.747 51.2104C258.087 51.3653 256.427 53.922 256.496 56.2462C256.496 58.5704 256.98 59.8875 256.911 61.5145C256.773 63.1414 256.773 64.7684 257.395 66.4728C257.811 67.635 258.848 67.8674 260.301 67.48C261.615 67.0926 263.414 65.6981 263.829 65.2332C264.244 64.7684 264.313 63.2189 264.313 63.2189C264.313 63.2189 266.25 62.909 267.149 60.8947C267.979 59.0353 267.841 50.4356 259.747 51.2104Z" fill="#FF9A8D"/>
<path d="M264.244 63.374C264.244 63.374 266.042 62.5992 265.835 60.3525C265.696 58.1057 262.929 58.0282 263.068 59.9651C263.068 60.12 262.03 59.5777 261.961 59.5002C261.546 59.1903 261.062 58.803 260.716 58.4156C259.886 57.6409 259.125 56.7112 258.64 55.704C257.949 54.3094 257.603 52.605 257.88 50.978C258.018 50.1258 258.225 49.9709 258.917 49.661C259.609 49.3511 260.37 49.1961 261.131 49.3511C263.344 49.661 264.52 51.133 264.52 51.133C264.52 51.133 266.595 50.2033 268.117 51.5204C269.639 52.8374 270.746 56.4013 269.432 59.9651C268.117 63.6064 266.111 65.0009 266.111 65.0009L264.244 63.374Z" fill="#001C45"/>
<path d="M264.451 51.2107C264.451 51.2107 265.627 50.3585 267.426 50.8233C269.224 51.2882 270.746 53.9223 270.815 57.6411C270.885 61.3598 270.539 64.8462 269.432 66.1633C268.325 67.4803 266.25 69.0298 263.967 68.7199C263.967 68.7199 265.281 65.9308 264.175 63.2967C264.175 63.2967 265.42 64.1489 266.527 62.4445C267.703 60.8175 264.451 51.2107 264.451 51.2107Z" fill="#001C45"/>
<path d="M258.226 60.1973C258.226 59.8875 258.433 59.655 258.71 59.655C258.986 59.655 259.194 59.8875 259.194 60.1973C259.194 60.5072 258.986 60.7397 258.71 60.7397C258.364 60.7397 258.156 60.5072 258.226 60.1973Z" fill="#001C45"/>
<path d="M257.81 58.8032L260.024 59.5779C260.024 59.5779 259.955 58.7257 259.194 58.4933C258.295 58.1834 257.81 58.8032 257.81 58.8032Z" fill="#001C45"/>
<path d="M264.728 59.8877C264.451 59.7328 263.967 59.8103 263.76 60.0427C263.69 60.1202 263.829 60.2751 263.898 60.2751C264.382 60.0427 265.005 60.0427 265.281 60.6625C265.281 60.6625 265.351 60.6625 265.281 60.6625C265.212 60.2751 265.074 60.0427 264.728 59.8877Z" fill="#BA5964"/>
<path d="M264.52 59.9651C264.451 59.9651 264.313 60.12 264.382 60.12C264.451 60.1975 264.589 60.275 264.659 60.3525C264.797 60.5849 264.797 60.7398 264.797 60.9722C264.728 61.5146 264.451 61.9019 263.967 62.0569C264.382 62.2118 264.866 61.6695 265.005 61.2822C265.005 60.8948 265.005 60.1975 264.52 59.9651Z" fill="#BA5964"/>
<path d="M252.76 96.7652C253.383 96.6877 253.729 96.6102 253.383 96.3003C252.83 95.758 252.276 95.4481 252.207 94.8283C252.138 94.0536 252.76 94.5959 253.175 94.8283C254.144 95.3707 255.389 95.6031 256.15 96.5328C258.433 95.8355 264.451 92.969 268.601 90.5672C268.601 90.5672 266.249 79.7983 266.042 76.9317C265.765 74.2201 266.111 71.431 268.809 70.7338C270.123 70.4239 270.953 72.0508 271.437 75.5372C271.921 79.0235 273.236 91.342 273.097 92.659C272.959 93.9761 271.645 94.9833 266.872 96.6877C264.174 97.6174 256.496 99.7867 256.496 99.7867C256.496 99.7867 255.735 100.252 254.559 100.561" fill="#FF9A8D"/>
<path d="M248.402 105.83V101.026C248.402 98.4697 250.27 96.4553 252.484 96.4553C254.766 96.4553 256.565 98.5471 256.565 101.026V105.83" stroke="#FFFFF8" stroke-width="0.838266" stroke-miterlimit="10" stroke-linecap="round"/>
<path d="M257.81 103.506H240.378L238.372 130.777H255.804L257.81 103.506Z" fill="#EA5E5D"/>
<path d="M260.923 103.506H257.81L255.804 130.777H258.502H260.231H262.929L260.923 103.506Z" fill="#D34A4A"/>
<path d="M255.804 130.777L259.401 127.213L262.929 130.777H255.804Z" fill="#A52F2F"/>
<path d="M244.252 106.217C244.252 105.752 244.598 105.442 244.944 105.442C245.359 105.442 245.636 105.83 245.636 106.217C245.636 106.682 245.29 106.992 244.944 106.992C244.598 106.992 244.252 106.682 244.252 106.217Z" fill="#A52F2F"/>
<path d="M252.484 106.217C252.484 105.752 252.829 105.442 253.175 105.442C253.59 105.442 253.867 105.83 253.867 106.217C253.867 106.682 253.521 106.992 253.175 106.992C252.829 106.992 252.484 106.682 252.484 106.217Z" fill="#A52F2F"/>
<path d="M245.013 105.83V101.026C245.013 98.4697 246.881 96.4553 249.094 96.4553C251.377 96.4553 253.175 98.5471 253.175 101.026V105.83" stroke="#FFFFF8" stroke-width="0.838266" stroke-miterlimit="10" stroke-linecap="round"/>
<path d="M254.421 100.639C253.384 100.872 252.069 101.027 250.548 100.639C250.271 100.562 249.994 100.484 249.717 100.407C248.472 99.9422 246.951 98.4702 247.642 96.8432C247.781 96.4558 248.057 95.991 248.403 95.836C248.887 95.6036 249.441 95.836 249.925 96.0684C250.409 96.3009 250.893 96.5333 251.447 96.6882C251.862 96.7657 252.415 96.7657 252.761 96.8432" fill="#FF9A8D"/>
</svg>
